<svg width="66" height="66" viewBox="0 0 66 66" fill="none" xmlns="http://www.w3.org/2000/svg">
<path d="M31.7271 3.49801C27.852 3.65829 24.0523 4.68601 20.2431 6.61886C14.9066 9.33429 10.7109 13.4923 7.88228 18.876C6.51514 21.4783 5.60056 24.1371 5.05371 27.1543C4.33714 31.0577 4.50685 35.6494 5.48742 39.4586C5.64771 40.0809 5.77971 40.6937 5.77028 40.8163C5.76085 40.9483 5.84571 41.2029 5.96828 41.382L6.19456 41.7214L7.55228 41.6554C8.29714 41.6271 10.3337 41.5894 12.0686 41.5894C13.8034 41.5894 15.2649 41.58 15.312 41.58C15.3591 41.58 15.3403 41.5234 15.2837 41.448C15.2177 41.3726 15.1329 41.184 15.0857 41.0143C15.0386 40.854 14.9914 35.7154 14.982 29.1814L14.9631 17.6503L15.18 17.2166C15.2931 16.9809 15.5383 16.6603 15.7269 16.5C16.4623 15.8966 15.246 15.9343 33.6034 15.9437C46.1434 15.9437 50.3674 15.972 50.5843 16.0569C51.0934 16.2549 51.4329 16.5094 51.7157 16.9054L51.9986 17.3014L52.074 26.07C52.1683 38.0254 52.14 40.7786 51.9326 41.1934C51.8383 41.3726 51.7629 41.5329 51.7629 41.5517C51.7629 41.5611 53.6674 41.58 55.9963 41.58C59.9563 41.58 60.2391 41.5706 60.2863 41.4103C61.2291 38.3366 61.6346 36.0454 61.7289 33.2357C61.8891 28.3329 60.8426 23.6469 58.542 19.0457C56.3829 14.7369 53.0734 10.9937 48.9814 8.25943C45.6814 6.05315 41.7403 4.48801 37.8086 3.82801C36.6206 3.63001 34.0843 3.39429 33.3771 3.43201C33.2451 3.43201 32.5097 3.46972 31.7271 3.49801Z" fill="#D3FFDD"/>
<path d="M16.566 16.5471C16.1417 16.6886 15.7929 16.9903 15.576 17.3957C15.4346 17.6503 15.4157 18.3103 15.4346 24.6557C15.4534 28.4932 15.4629 32.6229 15.4629 33.8297V36.0172L33.5469 35.9983L51.6214 35.97L51.6497 26.9186C51.6686 20.0263 51.6403 17.8011 51.5554 17.5843C51.3669 17.1034 51.084 16.7923 50.6786 16.5943C50.292 16.4057 50.094 16.4057 33.6034 16.4057C19.7246 16.4151 16.8677 16.434 16.566 16.5471ZM27.9463 19.0834C28.578 19.272 29.0212 19.6586 29.2852 20.2149C29.4926 20.6486 29.5114 20.8277 29.5114 22.0346C29.5114 23.1283 29.4832 23.4394 29.3323 23.7789C28.8703 24.8726 27.522 25.3157 26.4094 24.7594C25.5043 24.2974 25.2403 23.5526 25.2969 21.6763C25.3252 20.8843 25.3723 20.5166 25.4949 20.2714C25.806 19.6586 26.3152 19.2343 26.9657 19.0363C27.3146 18.9326 27.456 18.942 27.9463 19.0834ZM40.2506 19.1117C40.7974 19.2814 41.3066 19.7246 41.5517 20.2526C41.6932 20.5449 41.7214 20.8466 41.7214 22.0629C41.7214 23.4866 41.712 23.5337 41.4574 23.9674C41.1746 24.4483 40.5994 24.8537 40.0054 24.9952C39.204 25.1743 38.1952 24.684 37.7897 23.9297C37.5917 23.5526 37.5729 23.4017 37.5729 22.0157C37.5729 20.6297 37.5917 20.4694 37.7803 20.1112C38.0349 19.6397 38.4497 19.3097 39.0343 19.1023C39.5812 18.9232 39.666 18.9232 40.2506 19.1117ZM21.7894 19.3097C22.6946 19.7812 22.9397 20.3752 22.9209 22.11C22.902 23.4489 22.8172 23.8354 22.4212 24.288C21.6197 25.2026 20.3752 25.2874 19.47 24.4954C18.8289 23.9297 18.7629 23.694 18.7629 22.0063C18.7629 20.7146 18.7817 20.526 18.9609 20.2054C19.2437 19.6963 19.4134 19.5266 19.8943 19.272C20.4977 18.9609 21.1483 18.9703 21.7894 19.3097ZM32.2929 22.0157C32.2929 24.8726 32.2929 24.9386 32.1043 24.9386C31.9252 24.9386 31.9157 24.8632 31.8874 22.11C31.878 20.5543 31.8874 19.2249 31.9157 19.1589C31.944 19.0929 32.0383 19.0457 32.1232 19.0646C32.2834 19.0929 32.2929 19.3097 32.2929 22.0157ZM35.1214 22.0157C35.1214 24.8726 35.1214 24.9386 34.9329 24.9386C34.7537 24.9386 34.7443 24.8632 34.716 22.11C34.7066 20.5543 34.716 19.2249 34.7443 19.1589C34.7726 19.0929 34.8669 19.0457 34.9517 19.0646C35.112 19.0929 35.1214 19.3097 35.1214 22.0157ZM47.0109 19.1966C47.5483 19.4134 47.9632 19.8566 48.18 20.4317C48.3309 20.8372 48.3686 21.1672 48.3686 22.0629C48.3686 23.298 48.2177 23.8354 47.7274 24.354C46.8694 25.2592 45.3986 25.2214 44.616 24.2786C44.2106 23.7789 44.1257 23.364 44.1257 21.9309C44.1257 20.8183 44.154 20.592 44.3237 20.2243C44.5217 19.8094 44.9743 19.3757 45.4457 19.1683C45.7946 19.008 46.596 19.0269 47.0109 19.1966ZM31.218 27.6352C31.6234 27.8332 32.01 28.2669 32.1986 28.7289C32.406 29.2192 32.3966 31.6706 32.1892 32.0854C31.746 32.9623 31.1143 33.3772 30.228 33.3772C29.5869 33.3772 29.1814 33.2074 28.7383 32.7454C28.2009 32.1892 28.0783 31.6894 28.116 30.228C28.1443 29.1249 28.1726 28.9363 28.38 28.5309C28.6346 28.0312 29.2192 27.5597 29.7094 27.4372C30.1337 27.3334 30.7937 27.4183 31.218 27.6352ZM37.8557 27.654C38.3743 27.9463 38.8174 28.6252 38.8929 29.2757C38.9306 29.5586 38.9494 30.2657 38.9306 30.8503C38.8929 31.812 38.8646 31.9629 38.6289 32.3683C38.2612 32.9906 37.5823 33.3772 36.8563 33.3772C36.2152 33.3772 35.8663 33.2452 35.4043 32.8209C34.8197 32.2929 34.6972 31.8592 34.6972 30.3789C34.6972 29.2192 34.7254 29.04 34.9234 28.6063C35.4514 27.4749 36.7526 27.0506 37.8557 27.654ZM41.7497 30.4449C41.7214 33.2546 41.7214 33.33 41.5329 33.33C41.3443 33.33 41.3443 33.2546 41.316 30.4166C41.2972 27.4277 41.3254 27.1826 41.646 27.456C41.7497 27.5314 41.7686 28.1726 41.7497 30.4449ZM21.7894 27.654C22.3646 27.9652 22.7606 28.512 22.8926 29.1909C23.034 29.9074 22.9114 31.8969 22.6946 32.2929C22.3363 32.9812 21.6574 33.3772 20.8372 33.3772C19.9791 33.3772 19.3097 32.9623 18.9137 32.1797C18.678 31.7083 18.6969 29.2097 18.942 28.644C19.1306 28.2009 19.5643 27.7766 20.0357 27.5692C20.4977 27.3617 21.3086 27.4089 21.7894 27.654ZM25.74 30.3506C25.74 32.4532 25.7117 33.2923 25.6269 33.3394C25.3534 33.5092 25.3157 33.1037 25.3252 30.3506C25.3346 28.8232 25.3534 27.5503 25.3534 27.5032C25.3629 27.4654 25.4477 27.4372 25.5514 27.4372C25.74 27.4372 25.74 27.5032 25.74 30.3506ZM47.0769 27.588C48.0292 28.0689 48.3686 28.8137 48.3686 30.4543C48.3686 31.6894 48.2177 32.2269 47.7274 32.7549C46.926 33.6129 45.3514 33.5563 44.6066 32.6512C44.2106 32.1703 44.1257 31.746 44.1257 30.3223C44.1257 29.2097 44.154 28.9834 44.3237 28.6157C44.5406 28.1632 44.9366 27.7672 45.3986 27.5692C45.7946 27.39 46.7092 27.4089 47.0769 27.588Z" fill="#D3FFDD"/>
<path d="M27.0035 19.5172C26.5415 19.6209 26.1549 19.9509 25.9286 20.4129C25.74 20.7994 25.7212 20.9597 25.7589 22.1383C25.7966 23.5997 25.8909 23.8826 26.466 24.2786C26.9563 24.5992 27.8897 24.618 28.3517 24.2974C28.9175 23.9203 29.04 23.5054 29.04 22.0346C29.04 21.1483 29.0023 20.6392 28.908 20.4317C28.7477 20.0357 28.2857 19.6492 27.8332 19.5172C27.4466 19.4134 27.4183 19.4134 27.0035 19.5172Z" fill="#D3FFDD"/>
<path d="M39.2323 19.4889C38.8646 19.5643 38.3554 19.998 38.1763 20.4129C37.95 20.8937 37.9217 23.1094 38.1291 23.5997C38.6006 24.7406 40.2034 24.9103 40.9766 23.892L41.25 23.5432V22.0157V20.4883L40.986 20.1489C40.8446 19.9603 40.5994 19.734 40.458 19.6586C40.1468 19.4983 39.5623 19.4229 39.2323 19.4889Z" fill="#D3FFDD"/>
<path d="M20.13 19.6303C19.8189 19.8 19.5077 20.1112 19.3569 20.4034C19.2532 20.6014 19.2154 21.0257 19.206 22.0534C19.1966 23.3263 19.2154 23.4583 19.4134 23.7789C19.8849 24.552 20.9503 24.8066 21.7234 24.3352C22.3174 23.9674 22.5343 23.3829 22.5343 22.1006C22.5343 20.6014 22.3269 20.0829 21.5726 19.6963C21.186 19.4983 20.4317 19.4606 20.13 19.6303Z" fill="#D3FFDD"/>
<path d="M45.9171 19.4889C45.5777 19.5454 44.9743 19.9886 44.7763 20.3186C44.6348 20.5543 44.6066 20.8466 44.6066 22.0157C44.5971 23.4017 44.6066 23.4489 44.8423 23.826C45.1911 24.3634 45.5023 24.5143 46.2283 24.5143C46.7468 24.5143 46.8883 24.4766 47.2088 24.2409C47.7746 23.8354 47.8971 23.43 47.8971 21.9874C47.8971 20.922 47.8688 20.7523 47.6803 20.4223C47.2937 19.734 46.6148 19.3757 45.9171 19.4889Z" fill="#D3FFDD"/>
<path d="M29.832 27.8992C29.3794 28.0123 28.9645 28.3517 28.7571 28.7854C28.5968 29.1154 28.5685 29.3512 28.578 30.4449C28.5874 31.8497 28.71 32.2552 29.238 32.6417C30.03 33.2263 31.2745 32.934 31.7271 32.0477C31.9251 31.6706 31.9251 29.1437 31.7365 28.7666C31.5385 28.3989 30.9634 27.9086 30.7088 27.9086C30.5957 27.9086 30.4165 27.8897 30.3128 27.8709C30.2091 27.8426 29.9923 27.8614 29.832 27.8992Z" fill="#D3FFDD"/>
<path d="M36.4037 27.9086C35.9511 28.0217 35.6211 28.2857 35.376 28.7666C35.1686 29.1531 35.1591 29.2757 35.1874 30.558C35.2157 31.8969 35.2251 31.944 35.4797 32.274C35.8286 32.736 36.2151 32.9246 36.8091 32.9246C37.4031 32.934 37.8086 32.736 38.1574 32.274C38.412 31.944 38.4214 31.8969 38.4497 30.5674C38.4874 29.1343 38.4214 28.8137 38.0537 28.3989C37.6671 27.9651 36.9977 27.7671 36.4037 27.9086Z" fill="#D3FFDD"/>
<path d="M20.0263 28.0877C19.8565 28.1914 19.6208 28.4177 19.4794 28.5969C19.2437 28.908 19.2343 28.9457 19.2343 30.3883C19.2343 31.6989 19.2531 31.8969 19.4323 32.1892C19.7151 32.67 20.2054 32.934 20.8371 32.934C21.5443 32.934 21.978 32.6606 22.2891 32.0289C22.506 31.5952 22.5343 31.4443 22.5343 30.4449C22.5343 29.0966 22.374 28.6346 21.7705 28.1914C21.4405 27.9557 21.2897 27.9086 20.8465 27.9086C20.4977 27.9086 20.2243 27.9652 20.0263 28.0877Z" fill="#D3FFDD"/>
<path d="M45.8983 27.8992C45.474 27.984 44.9271 28.3894 44.7386 28.7572C44.5406 29.1343 44.5406 31.6706 44.7291 32.0383C45.0309 32.6134 45.5494 32.9152 46.2471 32.9152C46.9071 32.9152 47.4257 32.604 47.6991 32.0289C47.8689 31.68 47.8971 31.4537 47.8971 30.4072C47.8971 29.3606 47.8689 29.1343 47.6991 28.776C47.3597 28.0877 46.662 27.7483 45.8983 27.8992Z" fill="#D3FFDD"/>
<path d="M24.2125 36.4697L15.4628 36.4886V38.6571C15.4628 40.6466 15.4817 40.8634 15.6514 41.2029L15.84 41.58L22.8454 41.5989C26.6923 41.6177 34.65 41.6083 40.5334 41.58L51.2254 41.5329L51.4517 41.1086C51.6591 40.6937 51.6685 40.6183 51.6403 38.5629L51.6214 36.4414H42.2871C37.1485 36.4414 29.0211 36.4509 24.2125 36.4697Z" fill="#D3FFDD"/>
<path d="M48.972 45.2477C48.774 45.3609 48.5289 45.7003 48.2649 46.1906C47.8689 46.9166 47.6426 47.1334 47.4257 47.0014C47.3786 46.9732 47.3314 46.5677 47.3314 46.0963V45.2572H47.0297H46.7186L46.7657 47.3032L46.8129 49.3586L47.0769 49.3869L47.3314 49.4152V48.4723C47.3314 47.0769 47.5671 47.0674 48.4157 48.444C48.9249 49.2643 49.0097 49.3586 49.2926 49.3869C49.4623 49.4057 49.5943 49.3774 49.5943 49.3114C49.5943 49.2549 49.3209 48.8023 48.9814 48.2932C48.642 47.7934 48.3686 47.3032 48.3686 47.2183C48.3686 47.0297 48.8589 46.1717 49.1511 45.8417C49.2549 45.7286 49.4057 45.6343 49.4717 45.6343C49.6603 45.6343 49.5943 45.1252 49.4057 45.0874C49.3303 45.078 49.1323 45.144 48.972 45.2477Z" fill="#D3FFDD"/>
<path d="M18.4894 45.3703C17.7352 45.7475 17.292 46.6149 17.3674 47.6143C17.4146 48.3026 17.688 48.8212 18.1877 49.17C18.5366 49.4152 18.6686 49.4529 19.2154 49.4529C20.0263 49.4529 20.5826 49.1983 20.6297 48.8117C20.6674 48.51 20.658 48.51 20.2526 48.7363C19.536 49.1512 18.7912 49.0569 18.3103 48.51C17.7634 47.8972 17.7823 46.728 18.3574 46.0963C18.8854 45.5212 19.5077 45.4269 20.1112 45.8512C20.3563 46.0209 20.394 46.0209 20.5354 45.8889C20.6674 45.7475 20.6674 45.7192 20.526 45.5589C20.1489 45.144 19.1306 45.0497 18.4894 45.3703Z" fill="#D3FFDD"/>
<path d="M21.5254 45.9454C21.7423 46.332 22.1289 47.0674 22.3834 47.5954C22.8454 48.5289 22.8454 48.5571 22.6757 48.7457C22.572 48.8589 22.3834 48.9343 22.1949 48.9343C21.8271 48.9343 21.7706 49.0003 21.8837 49.2831C21.9874 49.5566 22.374 49.566 22.7889 49.3114C23.1 49.1229 23.4111 48.5949 23.9014 47.4257C24.0429 47.0863 24.2691 46.5583 24.42 46.2471C24.8537 45.3043 24.8537 45.2571 24.5237 45.2571C24.3163 45.2571 24.2314 45.3137 24.1749 45.4646C24.1466 45.5871 24.0429 45.8511 23.9486 46.0586C23.4111 47.2654 23.2886 47.5577 23.2886 47.6709C23.2886 47.7463 23.2226 47.8029 23.1471 47.8029C23.0717 47.8029 23.0057 47.7557 23.0057 47.6991C23.0057 47.6426 22.7417 47.0674 22.4211 46.4263L21.8271 45.2571H21.4783H21.1389L21.5254 45.9454Z" fill="#D3FFDD"/>
<path d="M25.6834 45.606C25.7117 45.804 25.74 46.7374 25.74 47.6897V49.4152L25.9851 49.3869L26.2303 49.3586L26.2209 47.5389L26.202 45.7192L27.3617 45.7474L28.5214 45.7757L28.5497 47.5954L28.5686 49.4152L28.8326 49.3869C28.974 49.368 29.0871 49.302 29.0777 49.236C29.0683 49.1794 29.0589 48.2554 29.0589 47.19L29.04 45.2572H27.3334H25.6174L25.6834 45.606Z" fill="#D3FFDD"/>
<path d="M30.5297 47.2089C30.5391 48.2932 30.5768 49.2266 30.5957 49.2926C30.624 49.3774 30.888 49.4057 31.6045 49.3869C32.5285 49.3586 32.5757 49.3492 32.604 49.1417C32.6323 48.9437 32.6134 48.9343 31.8685 48.9343H31.1048L31.1331 48.1989L31.1614 47.4729L31.7271 47.4446C32.2363 47.4163 32.4248 47.3314 32.4343 47.1146C32.4343 47.0769 32.142 47.0486 31.7743 47.0486H31.1143V46.3414V45.6343H31.8685C32.5568 45.6343 32.6228 45.6154 32.6228 45.4457C32.6228 45.2666 32.5568 45.2572 31.5668 45.2572H30.5014L30.5297 47.2089Z" fill="#D3FFDD"/>
<path d="M33.7731 47.3032L33.8014 49.3586L34.0654 49.3869L34.32 49.4152V48.6137V47.8029H34.6971C35.5174 47.8029 36.2057 47.1806 36.2057 46.4546C36.2057 45.606 35.7154 45.2572 34.518 45.2572H33.7543L33.7731 47.3032ZM35.4137 45.9266C35.7248 46.2189 35.7248 46.7846 35.4043 47.0957C35.2346 47.2749 35.0743 47.3314 34.7443 47.3314H34.32V46.4734V45.606L34.7537 45.6626C35.0177 45.6909 35.2628 45.7852 35.4137 45.9266Z" fill="#D3FFDD"/>
<path d="M39.0154 47.2089C39.0248 48.2932 39.0626 49.2266 39.0814 49.2832C39.1003 49.3492 39.2323 49.4057 39.3548 49.4057H39.6L39.6188 47.5389L39.6471 45.6814L40.3826 45.6532C41.0331 45.6249 41.1086 45.606 41.1086 45.4457C41.1086 45.2666 41.0426 45.2572 40.0526 45.2572H38.9871L39.0154 47.2089Z" fill="#D3FFDD"/>
<path d="M41.9383 47.2089C41.9477 48.2932 41.9854 49.2266 42.0043 49.2926C42.108 49.5754 42.4757 49.3397 42.9377 48.6986C43.8711 47.3786 44.3426 46.7092 44.4934 46.464C44.5783 46.3132 44.6726 46.2 44.7103 46.2C44.748 46.2 44.7951 46.9072 44.8046 47.7746L44.8329 49.3586L45.0969 49.3869L45.3514 49.4152L45.3326 47.3409L45.3043 45.2572H45.0214C44.7291 45.2666 44.6537 45.3514 42.9849 47.8217C42.7491 48.1706 42.5229 48.4346 42.4851 48.3969C42.4569 48.3686 42.4286 47.6426 42.4286 46.794V45.2572H42.174H41.91L41.9383 47.2089Z" fill="#D3FFDD"/>
<path d="M13.0491 52.8094C13.0491 52.998 13.4734 53.4129 14.3786 54.1294C14.6426 54.3274 15.1894 54.7612 15.6043 55.0912C18.9703 57.7783 23.5431 59.862 27.8143 60.6729C35.706 62.1626 43.8523 60.2769 50.2071 55.4966C51.3197 54.6574 53.0923 53.1583 53.0357 53.1017C53.0074 53.0734 53.0828 53.0074 53.1866 52.9509C53.2997 52.8943 53.3846 52.8094 53.3751 52.7717C53.3751 52.7246 46.2283 52.7057 37.4974 52.7246C20.5543 52.7529 16.4717 52.734 14.3786 52.6586C13.0868 52.6209 13.0491 52.6209 13.0491 52.8094Z" fill="#D3FFDD"/>
</svg>
