<svg width="58" height="58" viewBox="0 0 58 58" fill="none" xmlns="http://www.w3.org/2000/svg">
<path d="M27.1131 0.0700265C23.2379 0.230312 19.4382 1.25803 15.6291 3.19088C10.2925 5.90631 6.09678 10.0643 3.2682 15.448C1.90106 18.0503 0.98649 20.7092 0.439633 23.7263C-0.276938 27.6297 -0.107224 32.2215 0.873347 36.0306C1.03363 36.6529 1.16563 37.2657 1.1562 37.3883C1.14678 37.5203 1.23163 37.7749 1.3542 37.954L1.58049 38.2935L2.9382 38.2275C3.68306 38.1992 5.71963 38.1615 7.45449 38.1615C9.18935 38.1615 10.6508 38.152 10.6979 38.152C10.7451 38.152 10.7262 38.0955 10.6696 38.02C10.6036 37.9446 10.5188 37.756 10.4716 37.5863C10.4245 37.426 10.3773 32.2875 10.3679 25.7535L10.3491 14.2223L10.5659 13.7886C10.6791 13.5529 10.9242 13.2323 11.1128 13.072C11.8482 12.4686 10.6319 12.5063 28.9893 12.5157C41.5293 12.5157 45.7534 12.544 45.9702 12.6289C46.4794 12.8269 46.8188 13.0815 47.1016 13.4775L47.3845 13.8735L47.4599 22.642C47.5542 34.5975 47.5259 37.3506 47.3185 37.7655C47.2242 37.9446 47.1488 38.1049 47.1488 38.1237C47.1488 38.1332 49.0534 38.152 51.3822 38.152C55.3422 38.152 55.6251 38.1426 55.6722 37.9823C56.6151 34.9086 57.0205 32.6175 57.1148 29.8077C57.2751 24.9049 56.2285 20.2189 53.9279 15.6177C51.7688 11.3089 48.4594 7.56574 44.3674 4.83146C41.0674 2.62517 37.1262 1.06003 33.1945 0.400027C32.0065 0.202027 29.4702 -0.0336878 28.7631 0.00402651C28.6311 0.00402651 27.8956 0.0417408 27.1131 0.0700265Z" fill="#D3FFDD"/>
<path d="M11.9519 13.1192C11.5276 13.2606 11.1787 13.5623 10.9619 13.9677C10.8204 14.2223 10.8016 14.8823 10.8204 21.2277C10.8393 25.0652 10.8487 29.1949 10.8487 30.4017V32.5892L28.9327 32.5703L47.0073 32.542L47.0356 23.4906C47.0544 16.5983 47.0262 14.3732 46.9413 14.1563C46.7527 13.6755 46.4699 13.3643 46.0644 13.1663C45.6779 12.9777 45.4799 12.9777 28.9893 12.9777C15.1104 12.9872 12.2536 13.006 11.9519 13.1192ZM23.3322 15.6555C23.9639 15.844 24.407 16.2306 24.671 16.7869C24.8784 17.2206 24.8973 17.3997 24.8973 18.6066C24.8973 19.7003 24.869 20.0115 24.7182 20.3509C24.2562 21.4446 22.9079 21.8877 21.7953 21.3315C20.8902 20.8695 20.6262 20.1246 20.6827 18.2483C20.711 17.4563 20.7582 17.0886 20.8807 16.8435C21.1919 16.2306 21.701 15.8063 22.3516 15.6083C22.7004 15.5046 22.8419 15.514 23.3322 15.6555ZM35.6364 15.6837C36.1833 15.8535 36.6924 16.2966 36.9376 16.8246C37.079 17.1169 37.1073 17.4186 37.1073 18.6349C37.1073 20.0586 37.0979 20.1057 36.8433 20.5395C36.5604 21.0203 35.9853 21.4257 35.3913 21.5672C34.5899 21.7463 33.581 21.256 33.1756 20.5017C32.9776 20.1246 32.9587 19.9737 32.9587 18.5877C32.9587 17.2017 32.9776 17.0415 33.1662 16.6832C33.4207 16.2117 33.8356 15.8817 34.4202 15.6743C34.967 15.4952 35.0519 15.4952 35.6364 15.6837ZM17.1753 15.8817C18.0804 16.3532 18.3256 16.9472 18.3067 18.682C18.2879 20.0209 18.203 20.4075 17.807 20.86C17.0056 21.7746 15.761 21.8595 14.8559 21.0675C14.2147 20.5017 14.1487 20.266 14.1487 18.5783C14.1487 17.2866 14.1676 17.098 14.3467 16.7775C14.6296 16.2683 14.7993 16.0986 15.2802 15.844C15.8836 15.5329 16.5342 15.5423 17.1753 15.8817ZM27.6787 18.5877C27.6787 21.4446 27.6787 21.5106 27.4902 21.5106C27.311 21.5106 27.3016 21.4352 27.2733 18.682C27.2639 17.1263 27.2733 15.7969 27.3016 15.7309C27.3299 15.6649 27.4242 15.6177 27.509 15.6366C27.6693 15.6649 27.6787 15.8817 27.6787 18.5877ZM30.5073 18.5877C30.5073 21.4446 30.5073 21.5106 30.3187 21.5106C30.1396 21.5106 30.1302 21.4352 30.1019 18.682C30.0924 17.1263 30.1019 15.7969 30.1302 15.7309C30.1584 15.6649 30.2527 15.6177 30.3376 15.6366C30.4979 15.6649 30.5073 15.8817 30.5073 18.5877ZM42.3967 15.7686C42.9342 15.9855 43.349 16.4286 43.5659 17.0037C43.7167 17.4092 43.7544 17.7392 43.7544 18.6349C43.7544 19.87 43.6036 20.4075 43.1133 20.926C42.2553 21.8312 40.7844 21.7935 40.0019 20.8506C39.5964 20.3509 39.5116 19.936 39.5116 18.5029C39.5116 17.3903 39.5399 17.164 39.7096 16.7963C39.9076 16.3815 40.3602 15.9477 40.8316 15.7403C41.1804 15.58 41.9819 15.5989 42.3967 15.7686ZM26.6039 24.2072C27.0093 24.4052 27.3959 24.8389 27.5844 25.3009C27.7919 25.7912 27.7824 28.2426 27.575 28.6575C27.1319 29.5343 26.5002 29.9492 25.6139 29.9492C24.9727 29.9492 24.5673 29.7795 24.1242 29.3175C23.5867 28.7612 23.4642 28.2615 23.5019 26.8C23.5302 25.6969 23.5584 25.5083 23.7659 25.1029C24.0204 24.6032 24.605 24.1317 25.0953 24.0092C25.5196 23.9055 26.1796 23.9903 26.6039 24.2072ZM33.2416 24.226C33.7602 24.5183 34.2033 25.1972 34.2787 25.8477C34.3164 26.1306 34.3353 26.8377 34.3164 27.4223C34.2787 28.384 34.2504 28.5349 34.0147 28.9403C33.647 29.5626 32.9682 29.9492 32.2422 29.9492C31.601 29.9492 31.2522 29.8172 30.7902 29.3929C30.2056 28.8649 30.083 28.4312 30.083 26.9509C30.083 25.7912 30.1113 25.612 30.3093 25.1783C30.8373 24.0469 32.1384 23.6226 33.2416 24.226ZM37.1356 27.0169C37.1073 29.8266 37.1073 29.902 36.9187 29.902C36.7302 29.902 36.7302 29.8266 36.7019 26.9886C36.683 23.9997 36.7113 23.7546 37.0319 24.028C37.1356 24.1035 37.1544 24.7446 37.1356 27.0169ZM17.1753 24.226C17.7504 24.5372 18.1464 25.084 18.2784 25.7629C18.4199 26.4795 18.2973 28.4689 18.0804 28.8649C17.7222 29.5532 17.0433 29.9492 16.223 29.9492C15.365 29.9492 14.6956 29.5343 14.2996 28.7517C14.0639 28.2803 14.0827 25.7817 14.3279 25.216C14.5164 24.7729 14.9502 24.3486 15.4216 24.1412C15.8836 23.9337 16.6944 23.9809 17.1753 24.226ZM21.1259 26.9226C21.1259 29.0252 21.0976 29.8643 21.0127 29.9115C20.7393 30.0812 20.7016 29.6757 20.711 26.9226C20.7204 25.3952 20.7393 24.1223 20.7393 24.0752C20.7487 24.0375 20.8336 24.0092 20.9373 24.0092C21.1259 24.0092 21.1259 24.0752 21.1259 26.9226ZM42.4627 24.16C43.415 24.6409 43.7544 25.3857 43.7544 27.0263C43.7544 28.2615 43.6036 28.7989 43.1133 29.3269C42.3119 30.1849 40.7373 30.1283 39.9924 29.2232C39.5964 28.7423 39.5116 28.318 39.5116 26.8943C39.5116 25.7817 39.5399 25.5555 39.7096 25.1877C39.9264 24.7352 40.3224 24.3392 40.7844 24.1412C41.1804 23.962 42.095 23.9809 42.4627 24.16Z" fill="#D3FFDD"/>
<path d="M22.3893 16.0892C21.9273 16.1929 21.5407 16.5229 21.3145 16.9849C21.1259 17.3714 21.107 17.5317 21.1447 18.7103C21.1825 20.1717 21.2767 20.4546 21.8519 20.8506C22.3422 21.1712 23.2756 21.19 23.7376 20.8694C24.3033 20.4923 24.4259 20.0774 24.4259 18.6066C24.4259 17.7203 24.3882 17.2112 24.2939 17.0037C24.1336 16.6077 23.6716 16.2212 23.219 16.0892C22.8325 15.9854 22.8042 15.9854 22.3893 16.0892Z" fill="#D3FFDD"/>
<path d="M34.6182 16.0609C34.2505 16.1363 33.7413 16.57 33.5622 16.9849C33.3359 17.4657 33.3076 19.6814 33.5151 20.1717C33.9865 21.3126 35.5893 21.4823 36.3625 20.464L36.6359 20.1152V18.5877V17.0603L36.3719 16.7209C36.2305 16.5323 35.9853 16.306 35.8439 16.2306C35.5328 16.0703 34.9482 15.9949 34.6182 16.0609Z" fill="#D3FFDD"/>
<path d="M15.5159 16.2023C15.2047 16.372 14.8936 16.6832 14.7427 16.9755C14.639 17.1735 14.6013 17.5977 14.5919 18.6255C14.5825 19.8983 14.6013 20.0303 14.7993 20.3509C15.2707 21.124 16.3362 21.3786 17.1093 20.9072C17.7033 20.5395 17.9202 19.9549 17.9202 18.6726C17.9202 17.1735 17.7127 16.6549 16.9585 16.2683C16.5719 16.0703 15.8176 16.0326 15.5159 16.2023Z" fill="#D3FFDD"/>
<path d="M41.3031 16.0609C40.9637 16.1174 40.3602 16.5606 40.1622 16.8906C40.0208 17.1263 39.9925 17.4186 39.9925 18.5877C39.9831 19.9737 39.9925 20.0209 40.2282 20.398C40.5771 20.9354 40.8882 21.0863 41.6142 21.0863C42.1328 21.0863 42.2742 21.0486 42.5948 20.8129C43.1605 20.4074 43.2831 20.002 43.2831 18.5594C43.2831 17.494 43.2548 17.3243 43.0662 16.9943C42.6797 16.306 42.0008 15.9477 41.3031 16.0609Z" fill="#D3FFDD"/>
<path d="M25.2179 24.4712C24.7653 24.5843 24.3505 24.9237 24.143 25.3575C23.9828 25.6875 23.9545 25.9232 23.9639 27.0169C23.9733 28.4217 24.0959 28.8272 24.6239 29.2137C25.4159 29.7983 26.6605 29.506 27.113 28.6197C27.311 28.2426 27.311 25.7157 27.1225 25.3386C26.9245 24.9709 26.3493 24.4806 26.0948 24.4806C25.9816 24.4806 25.8025 24.4617 25.6988 24.4429C25.595 24.4146 25.3782 24.4335 25.2179 24.4712Z" fill="#D3FFDD"/>
<path d="M31.7897 24.4806C31.3371 24.5938 31.0071 24.8578 30.762 25.3386C30.5546 25.7252 30.5451 25.8478 30.5734 27.1301C30.6017 28.4689 30.6111 28.5161 30.8657 28.8461C31.2146 29.3081 31.6011 29.4966 32.1951 29.4966C32.7891 29.5061 33.1946 29.3081 33.5434 28.8461C33.798 28.5161 33.8074 28.4689 33.8357 27.1395C33.8734 25.7063 33.8074 25.3858 33.4397 24.9709C33.0531 24.5372 32.3837 24.3392 31.7897 24.4806Z" fill="#D3FFDD"/>
<path d="M15.4122 24.6598C15.2425 24.7635 15.0068 24.9898 14.8654 25.1689C14.6297 25.48 14.6202 25.5178 14.6202 26.9603C14.6202 28.2709 14.6391 28.4689 14.8182 28.7612C15.1011 29.242 15.5914 29.506 16.2231 29.506C16.9302 29.506 17.364 29.2326 17.6751 28.6009C17.892 28.1672 17.9202 28.0163 17.9202 27.0169C17.9202 25.6686 17.76 25.2066 17.1565 24.7635C16.8265 24.5278 16.6757 24.4806 16.2325 24.4806C15.8837 24.4806 15.6102 24.5372 15.4122 24.6598Z" fill="#D3FFDD"/>
<path d="M41.2841 24.4712C40.8599 24.556 40.313 24.9615 40.1244 25.3292C39.9264 25.7063 39.9264 28.2426 40.115 28.6103C40.4167 29.1855 40.9353 29.4872 41.633 29.4872C42.293 29.4872 42.8116 29.176 43.085 28.6009C43.2547 28.252 43.283 28.0258 43.283 26.9792C43.283 25.9326 43.2547 25.7063 43.085 25.348C42.7456 24.6598 42.0479 24.3203 41.2841 24.4712Z" fill="#D3FFDD"/>
<path d="M19.5985 33.0418L10.8488 33.0606V35.2292C10.8488 37.2186 10.8676 37.4355 11.0373 37.7749L11.2259 38.1521L18.2313 38.1709C22.0782 38.1898 30.0359 38.1803 35.9193 38.1521L46.6113 38.1049L46.8376 37.6806C47.045 37.2658 47.0545 37.1903 47.0262 35.1349L47.0073 33.0135H37.673C32.5345 33.0135 24.407 33.0229 19.5985 33.0418Z" fill="#D3FFDD"/>
<path d="M44.3579 41.8198C44.1599 41.9329 43.9148 42.2723 43.6508 42.7626C43.2548 43.4886 43.0285 43.7055 42.8116 43.5735C42.7645 43.5452 42.7173 43.1398 42.7173 42.6683V41.8292H42.4156H42.1045L42.1516 43.8752L42.1988 45.9306L42.4628 45.9589L42.7173 45.9872V45.0443C42.7173 43.6489 42.9531 43.6395 43.8016 45.016C44.3108 45.8363 44.3956 45.9306 44.6785 45.9589C44.8482 45.9778 44.9802 45.9495 44.9802 45.8835C44.9802 45.8269 44.7068 45.3743 44.3673 44.8652C44.0279 44.3655 43.7545 43.8752 43.7545 43.7903C43.7545 43.6018 44.2448 42.7438 44.5371 42.4138C44.6408 42.3006 44.7916 42.2063 44.8576 42.2063C45.0462 42.2063 44.9802 41.6972 44.7916 41.6595C44.7162 41.65 44.5182 41.716 44.3579 41.8198Z" fill="#D3FFDD"/>
<path d="M13.8753 41.9423C13.121 42.3195 12.6779 43.1869 12.7533 44.1863C12.8004 44.8746 13.0739 45.3932 13.5736 45.742C13.9224 45.9872 14.0544 46.0249 14.6013 46.0249C15.4122 46.0249 15.9684 45.7703 16.0156 45.3838C16.0533 45.082 16.0439 45.082 15.6384 45.3083C14.9219 45.7232 14.177 45.6289 13.6962 45.082C13.1493 44.4692 13.1682 43.3 13.7433 42.6683C14.2713 42.0932 14.8936 41.9989 15.497 42.4232C15.7422 42.5929 15.7799 42.5929 15.9213 42.4609C16.0533 42.3195 16.0533 42.2912 15.9119 42.1309C15.5347 41.716 14.5164 41.6218 13.8753 41.9423Z" fill="#D3FFDD"/>
<path d="M16.9114 42.5175C17.1282 42.904 17.5148 43.6395 17.7694 44.1675C18.2314 45.1009 18.2314 45.1292 18.0616 45.3177C17.9579 45.4309 17.7694 45.5063 17.5808 45.5063C17.2131 45.5063 17.1565 45.5723 17.2696 45.8552C17.3734 46.1286 17.7599 46.138 18.1748 45.8835C18.4859 45.6949 18.7971 45.1669 19.2874 43.9977C19.4288 43.6583 19.6551 43.1303 19.8059 42.8192C20.2396 41.8763 20.2396 41.8292 19.9096 41.8292C19.7022 41.8292 19.6174 41.8857 19.5608 42.0366C19.5325 42.1592 19.4288 42.4232 19.3345 42.6306C18.7971 43.8375 18.6745 44.1297 18.6745 44.2429C18.6745 44.3183 18.6085 44.3749 18.5331 44.3749C18.4576 44.3749 18.3916 44.3277 18.3916 44.2712C18.3916 44.2146 18.1276 43.6395 17.8071 42.9983L17.2131 41.8292H16.8642H16.5248L16.9114 42.5175Z" fill="#D3FFDD"/>
<path d="M21.0693 42.178C21.0976 42.376 21.1259 43.3095 21.1259 44.2618V45.9872L21.371 45.9589L21.6162 45.9306L21.6067 44.1109L21.5879 42.2912L22.7476 42.3195L23.9073 42.3478L23.9356 44.1675L23.9544 45.9872L24.2184 45.9589C24.3599 45.94 24.473 45.874 24.4636 45.808C24.4542 45.7515 24.4447 44.8275 24.4447 43.762L24.4259 41.8292H22.7193H21.0033L21.0693 42.178Z" fill="#D3FFDD"/>
<path d="M25.9156 43.7809C25.925 44.8652 25.9628 45.7986 25.9816 45.8646C26.0099 45.9495 26.2739 45.9778 26.9905 45.9589C27.9145 45.9306 27.9616 45.9212 27.9899 45.7138C28.0182 45.5158 27.9993 45.5063 27.2545 45.5063H26.4908L26.519 44.7709L26.5473 44.0449L27.113 44.0166C27.6222 43.9883 27.8108 43.9035 27.8202 43.6866C27.8202 43.6489 27.5279 43.6206 27.1602 43.6206H26.5002V42.9135V42.2063H27.2545C27.9428 42.2063 28.0088 42.1875 28.0088 42.0178C28.0088 41.8386 27.9428 41.8292 26.9528 41.8292H25.8873L25.9156 43.7809Z" fill="#D3FFDD"/>
<path d="M29.1591 43.8752L29.1874 45.9306L29.4514 45.9589L29.706 45.9872V45.1858V44.3749H30.0831C30.9034 44.3749 31.5917 43.7526 31.5917 43.0266C31.5917 42.178 31.1014 41.8292 29.904 41.8292H29.1403L29.1591 43.8752ZM30.7997 42.4986C31.1108 42.7909 31.1108 43.3566 30.7903 43.6678C30.6205 43.8469 30.4603 43.9035 30.1303 43.9035H29.706V43.0455V42.178L30.1397 42.2346C30.4037 42.2629 30.6488 42.3572 30.7997 42.4986Z" fill="#D3FFDD"/>
<path d="M34.4013 43.7809C34.4108 44.8652 34.4485 45.7986 34.4673 45.8552C34.4862 45.9212 34.6182 45.9777 34.7408 45.9777H34.9859L35.0048 44.1109L35.033 42.2534L35.7685 42.2252C36.419 42.1969 36.4945 42.178 36.4945 42.0177C36.4945 41.8386 36.4285 41.8292 35.4385 41.8292H34.373L34.4013 43.7809Z" fill="#D3FFDD"/>
<path d="M37.3242 43.7809C37.3336 44.8652 37.3713 45.7986 37.3902 45.8646C37.4939 46.1475 37.8616 45.9118 38.3236 45.2706C39.257 43.9506 39.7285 43.2812 39.8793 43.036C39.9642 42.8852 40.0585 42.772 40.0962 42.772C40.1339 42.772 40.181 43.4792 40.1905 44.3466L40.2188 45.9306L40.4828 45.9589L40.7373 45.9872L40.7185 43.9129L40.6902 41.8292H40.4073C40.115 41.8386 40.0396 41.9235 38.3708 44.3938C38.135 44.7426 37.9088 45.0066 37.871 44.9689C37.8428 44.9406 37.8145 44.2146 37.8145 43.366V41.8292H37.5599H37.2959L37.3242 43.7809Z" fill="#D3FFDD"/>
<path d="M8.43506 49.3815C8.43506 49.57 8.85934 49.9849 9.76449 50.7015C10.0285 50.8995 10.5753 51.3332 10.9902 51.6632C14.3562 54.3503 18.9291 56.434 23.2002 57.2449C31.0919 58.7346 39.2382 56.8489 45.5931 52.0686C46.7056 51.2295 48.4782 49.7303 48.4216 49.6737C48.3933 49.6455 48.4688 49.5795 48.5725 49.5229C48.6856 49.4663 48.7705 49.3815 48.7611 49.3437C48.7611 49.2966 41.6142 49.2777 32.8833 49.2966C15.9402 49.3249 11.8576 49.306 9.76449 49.2306C8.47277 49.1929 8.43506 49.1929 8.43506 49.3815Z" fill="#D3FFDD"/>
</svg>
